<svg xmlns="http://www.w3.org/2000/svg" width="1024" height="1536" viewBox="0 0 1024 1536">
  <g fill="#2b2833" stroke="#1e1b25" stroke-width="8" stroke-linecap="round" stroke-linejoin="round">
    <path d="M372 322 C372 222 432 170 512 170 C592 170 652 222 652 322 C652 430 610 500 548 548 L476 548 C414 500 372 430 372 322 Z"/>
    <path d="M392 308 C418 250 464 228 512 228 C560 228 606 250 632 308 C600 302 566 308 540 328 C522 344 502 344 484 328 C458 308 424 302 392 308 Z" fill="#272431"/>
    <path d="M392 388 C404 466 420 528 466 564"/>
    <path d="M632 388 C620 466 604 528 558 564"/>
  </g>
</svg>
