<svg xmlns="http://www.w3.org/2000/svg" width="1024" height="1536" viewBox="0 0 1024 1536">
  <g fill="#6a4636" stroke="#4b3025" stroke-width="8" stroke-linecap="round" stroke-linejoin="round">
    <path d="M388 318 C388 224 446 176 512 176 C578 176 636 224 636 318 C636 406 604 466 550 512 L474 512 C420 466 388 406 388 318 Z"/>
    <ellipse cx="418" cy="304" rx="18" ry="20"/>
    <ellipse cx="606" cy="304" rx="18" ry="20"/>
    <path d="M392 346 C350 392 332 462 344 532 C356 604 392 648 430 694 C438 650 444 590 438 530 C434 472 420 410 392 346 Z"/>
    <path d="M632 346 C674 392 692 462 680 532 C668 604 632 648 594 694 C586 650 580 590 586 530 C590 472 604 410 632 346 Z"/>
    <path d="M406 300 C442 244 476 228 512 228 C548 228 582 244 618 300 C586 300 554 314 532 336 C518 350 506 350 492 336 C470 314 438 300 406 300 Z" fill="#5b3c30"/>
  </g>
</svg>
