<svg xmlns="http://www.w3.org/2000/svg" width="1024" height="1536" viewBox="0 0 1024 1536">
  <g fill="#5b3c2f" stroke="#3f2a21" stroke-width="8" stroke-linecap="round" stroke-linejoin="round">
    <path d="M370 322 C370 214 438 158 512 158 C586 158 654 214 654 322 C654 514 606 650 560 760 L464 760 C418 650 370 514 370 322 Z"/>
    <path d="M390 302 C426 238 470 216 512 216 C554 216 598 238 634 302 C592 300 560 316 538 340 C522 356 502 356 486 340 C464 316 432 300 390 302 Z" fill="#4c3228"/>
    <path d="M430 568 C428 644 430 708 446 770"/>
    <path d="M594 568 C596 644 594 708 578 770"/>
  </g>
</svg>
