<svg xmlns="http://www.w3.org/2000/svg" width="1024" height="1536" viewBox="0 0 1024 1536">
  <g fill="#8f6247" stroke="#4c3022" stroke-width="8" stroke-linecap="round" stroke-linejoin="round">
    <path d="M448 1218 L532 1218 L532 1332 C532 1362 510 1378 480 1378 C450 1378 428 1362 428 1332 L428 1240 Z"/>
    <path d="M540 1218 L624 1218 L624 1332 C624 1362 602 1378 572 1378 C542 1378 520 1362 520 1332 L520 1240 Z"/>
    <path d="M428 1336 C436 1356 454 1368 480 1368 C506 1368 524 1356 532 1336" fill="#a17356"/>
    <path d="M520 1336 C528 1356 546 1368 572 1368 C598 1368 616 1356 624 1336" fill="#a17356"/>
    <path d="M454 1248 L504 1248"/>
    <path d="M546 1248 L596 1248"/>
  </g>
</svg>
